<svg id="Layer_1" data-name="Layer 1" xmlns="http://www.w3.org/2000/svg" viewBox="0 0 474.06 216.8"><defs><style>.cls-1{fill:#020202;}</style></defs><path class="cls-1" d="M493.53,87.11H215V37.81L26.38,142.13a4.13,4.13,0,0,0,0,7.23L215,254.61V205.32h278.5a4.77,4.77,0,0,0,4.77-4.77V91.88A4.76,4.76,0,0,0,493.53,87.11ZM275.46,190l-.14,1.66a3,3,0,0,1-1.24,1.93,5.58,5.58,0,0,1-2.35,1.24h-2.62a7.85,7.85,0,0,1-1.8-.14l-.41-.14-2.76.14a4.63,4.63,0,0,1-1.38-.14l-.83-.27-3.31-.14-1.93.28H255a4.89,4.89,0,0,1-2.9.27l-2.2.14a8.43,8.43,0,0,1-1.94-.14l-1.1-.27-3.18.13-3.31.42a5.23,5.23,0,0,1-2.89-.42l-1.39.14-1.65-.14h-.28a5.63,5.63,0,0,1-2.62.14l-1.65-.27-1.94.41-3.58-.28-1.94.28h-3.58l-1.11-.28a8.89,8.89,0,0,1-1.65-2.34,9.63,9.63,0,0,1-.14-1.93l.14-2.63v-1.79l.27-3.45-.41-1.79.14-1.52v-.14l.13-1.66-.13-1.65-.42-3v-5.1l-.14-1.8V159a6.16,6.16,0,0,1,.14-1.66l.42-1.38-.14-3-.42-1.11V149.1a9.36,9.36,0,0,1,.28-1.79l.14-.55-.14-2.76a11.72,11.72,0,0,1,.14-2.21l.27-.55-.55-3.32v-.55a4.19,4.19,0,0,1-.14-1.24v-2.48l-.13-1.94.27-3v-1.8l.14-4.14-.28-3.45-.13-1.79.13-3.31v-1.66l-.27-2.34v-1.11l.14-1.52.55-3.17V102.6l.14-4a7,7,0,0,1,1-3l.42-.69L219,95h2.9a3.9,3.9,0,0,1,1.8,0l.69.13,3.45.28,1.65.14,4-.14a6.29,6.29,0,0,1,3.32,1.66l.27.27L236.82,99l.41,3.72.14,1.66v1.38a6.33,6.33,0,0,1-.69,2.76l.14,3.31.41,1.52.28,2.35c0,.55.13,1.1.13,1.51l-.13.83-.28,3.31.14,1.66-.14,2.21a5.11,5.11,0,0,1-.14,1.38L237,127l.14,3.18.14,1.79.14,2.48a9.06,9.06,0,0,1-.14,1.94l-.28,1v7.32l.14,1.38V149l-.14,1.52.14,1.93a6.77,6.77,0,0,1-.41,2.9v.14l.27,3.17.42,1.94.14,2.62v1.24l-.14,1,.14,2.07a7,7,0,0,1,0,1.65l-.28.83-.14,2.76c0,.28-.14.69-.14,1l-.13,1,1.65,1.66,1.93.27,3.31.14h4.42l1.93-.14h3.18l1.1-.13,4.56.27h3.58l.14-.14a5.76,5.76,0,0,1,2.62-.27l2.21.27h1.38l3.18.56a6,6,0,0,1,3,1.79l.28.28.14,1.79v3.86l.13,1.66Zm33.23-39.22v1.52l-.14,1.25-.41,3.18.28,1.67V162l-.14,1.52.14,2.5v1.38l-.14.83v3.33l.14,1.52v3.19l.13.41a11.11,11.11,0,0,1,.14,2.08l-.14,1.94-.41,1.8-.28,3.74V188l.42,3.19a3,3,0,0,1-.83,1.8,6,6,0,0,1-2.64,1.66,5.56,5.56,0,0,1-1.52.14l-2.35.14a6.8,6.8,0,0,1-2.91,0l-1.67-.28h-1.8l-3.05-.14a7.12,7.12,0,0,1-3.87-2.07l-.28-.28v-5.54l.14-3.74-.28-1.67.14-3.6.28-1.24-.28-3.33v-1.94l-.28-1.66a7.43,7.43,0,0,1,0-2.49l.14-.7.14-2.91.14-1.8.14-4.15-.28-3.88v-1.66l-.14-2.22a6,6,0,0,1,.42-2.36l.13-.41-.13-2.08a7.11,7.11,0,0,1,.13-1.66v-.56l.14-3v-5l-.41-1.66.14-3.61a3.13,3.13,0,0,1,1-2.77,3.87,3.87,0,0,1,2.49-.83h3.46l1.53.28,3.46-.14,2.08.14,3.46-.56h.14c.55-.13,2.77,1.94,3.19,3.19a.89.89,0,0,1,.13.56v1.94a6,6,0,0,1-.41,2.77L308,134l-.14,3,.28,1.66c0,.42.14.84.14,1.25v4.3l.27,1.38a6.8,6.8,0,0,1,0,2.91l-.13.28Zm.14-43.5a6.72,6.72,0,0,1-1.11,3.46,9.41,9.41,0,0,1-1.52,1.8l-1.11,1a5.74,5.74,0,0,1-1.66,1.11l-.28.14-2.91.83-.41.14a7.28,7.28,0,0,1-2.36.41h-.41l-1.94-.14-.83-.13a5.36,5.36,0,0,1-3.33-1.53l-2.08-2.21-.55-.84a2.83,2.83,0,0,1-.69-1.1l-.42-1a6.36,6.36,0,0,1-.55-2.91v-1.8l.27-1.67.42-1.66a4.54,4.54,0,0,1,1.8-2.63l.69-.69a7.74,7.74,0,0,1,4.44-2.36l1.1-.14,1.67-.14,1.66.14,1.94.14,1.52.28a6.86,6.86,0,0,1,3.6,1.8l.28.28a13.75,13.75,0,0,1,1.39,1.66l.41.55.42,1.53a11.92,11.92,0,0,1,.27,2.21l-.13.84.41,1.52Zm66.91,71.2v.28l-.14,1a6.82,6.82,0,0,1-1.1,3.46l-.84,1.81a5.34,5.34,0,0,1-1.66,2.21h-.14l-1.66,2.08a4.64,4.64,0,0,1-.83.83l-1,.83-1.8,1.25a5,5,0,0,1-2.49,1.11l-2.22.83a4.83,4.83,0,0,1-1.94.41l-1,.14-2.77.83a3,3,0,0,1-1.11.14l-1,.14-1.38.28a6.89,6.89,0,0,1-2.91-.28l-1.67.42-1.38-.14h-.14l-1.52-.14h-3.47l-5.81-.55-3.61-1-1.8.13-3.46-.83a6.41,6.41,0,0,1-3.05-3l-.14-.28.14-2.36-.28-3.18v-2.08l.28-3.6V177.6a9.62,9.62,0,0,1,2.49-1.8c.56-.28,1.11,0,1.67.14l2.49.69,1.52.28,1.81.55a7.09,7.09,0,0,1,2.07.84l.7.55,3.32.55,1.8.28,2.91.14h1.94L348,180h1.8l3.32-.56,1-.69,1.39-2.77-.42-1.66-.14-1.53-1.8-2.63-1.66-.55-3.05-1.39-1.8-.83-1.66-.28-1.66-.55-1.53-.42-3.05-1.38-1.38-.55-2.77-1.53-1.53-1L330.44,160l-.55-.42c-.28-.27-.56-.41-.83-.69l-2.22-2.35-.28-.28a12.19,12.19,0,0,1-1-1.8l-.69-2.08-.55-1.66-.42-1.8a5.14,5.14,0,0,1,0-2.91l-.41-1.53-.14-1.94a6.82,6.82,0,0,1,.14-2.91l.13-.27a6.41,6.41,0,0,1,1-1.94v-.14L326,134.1l.14-.14a5.83,5.83,0,0,1,1.24-1.94l1.53-1.66.55-.69a5.62,5.62,0,0,1,1.39-1.11l2.21-1.38.28-.28a4.68,4.68,0,0,1,1.8-.69l1.94-.56,1.39-.55,2.77-.56a7.15,7.15,0,0,1,1.66-.13h.83l3.47-.14,1.38-.42,1.66-.14h.42L357,124l3.19.28a7.37,7.37,0,0,1,1.66.27l2.08.7,1.38.41,3.33,1.25a6.61,6.61,0,0,1,2.49,2.35l.55.7-.13,1.38v6l.41,3.32v.14a7.48,7.48,0,0,1,0,2.5l-.14.41-.83.56a6.45,6.45,0,0,1-3.18-.83l-2.77-.7-1.53-.14-1-.27a8.22,8.22,0,0,1-2.49-1.11l-.28-.28-3.6-.55h-3.33l-3.46.69-1.94.55-1.94.28L344,144.08l.14,1.94.41,1.38,1.66,2.91,1,.56,2.9,1.1,2.77,1.53,1.81.27,1.24.56,2.91.83,1.25.14,1.66.41,2.63,1.11,1.11.83,2.91,1.81,1,.83.14.14a8,8,0,0,1,1.8,1.93l1.11,1.81,1.94,3.32.27.42a7.57,7.57,0,0,1,.83,1.94l.14.55a7.48,7.48,0,0,1-.14,3l.28,1.66.14.69A8.53,8.53,0,0,1,375.74,178.43ZM432,186.75l-.14,3.32a1.25,1.25,0,0,1,.14.69,4.5,4.5,0,0,1-2.91,3.88.43.43,0,0,1-.28.14l-2.77.83-1.39.14-3,.42-1.53.41-2.08.28h-1.66l-.69-.14-1.52.14h-1.53l-1.38-.14-2.91-.55a8.08,8.08,0,0,1-1-.28l-.7-.28-3-1.24h-.42a9,9,0,0,1-1.94-1l-1.38-1a6.91,6.91,0,0,1-1.53-1.25l-.41-.42-1.25-1.38a5.93,5.93,0,0,1-1.39-1.8l-.14-.28-1.52-2.91-.28-.14a10.54,10.54,0,0,1-1-2.21l-.7-2.22-.28-1.66-.27-.83a6.74,6.74,0,0,1-.14-1.67l-.14-.69-.14-3.19V170l.14-1.38v-1.8l-.14-3.19.14-1.52-.41-2.22a6.59,6.59,0,0,1,0-1.66l.13-1-.13-3.88.13-3.33.28-1.8-.14-1.94a9.36,9.36,0,0,1,.28-1.94l.14-.69L389.18,142l-1.66-.14-3.33-.28-1.38-1.1c-1.11-.7-1.25-1.94-1.39-3v-2.5c0-.27.14-.83.14-1.1l.14-1.39-.28-3.32a4.21,4.21,0,0,1,.55-2.78,5.29,5.29,0,0,1,2.36-1.38l3.6.28,1.66-.28,1.8-1.25.28-1.94-.28-3.46-.27-1.66v-4.71c0-.14.14-.56.14-.7l.41-3a3.11,3.11,0,0,1,.56-2.36,4.68,4.68,0,0,1,2.49-1.66h3l1.66.14,3.05.41,1.8-.27,3.18.14a7.32,7.32,0,0,1,3.33,1.38l.14.14.28,2.08.27,2.63c0,.55.14.69.14,1.25l-.14,1.24v3.33l-.14,1.8.28,3,.14,1.94,1.66,1.66,1.66.55,3.19.14,1.25-.69,3.05-.28h1.1l1.94.14a5.21,5.21,0,0,1,2.08.55l.28.14,1,1c.27.42.55,1,.83,1.39l.14.41v1.67l.14,1.52a10.45,10.45,0,0,1-.42,2.91v.14l-.14,3.18v.56a8.1,8.1,0,0,1-1,2.77l-.41.69h-2.5l-1.66-.14a2.34,2.34,0,0,1-1-.14l-1-.27h-3.88l-3.74.27h-1.66l-1.8,1.53.14,1.94-.14,3.18-.14,1.8.28,3.19.69,3.19a6.56,6.56,0,0,1,0,1.66v.42l-.14,2.35a5.18,5.18,0,0,1-.41,2.08l-.14.14.14,3.32.13,1.66.28,1.94.14,1.53-.14,1.52,1.39,2.91,1.11,1,2.9,1.39,1.94-.14h.42a6.46,6.46,0,0,1,2.35.14h.42l1.8.13,2.91-.41h2.22l1.24-.56c1.25,1.11,2.08,2.08,2.08,3l-.14,3.19A7.27,7.27,0,0,1,432,186.75Z" transform="translate(-24.25 -37.81)"/></svg>